<svg width="256" height="256" viewBox="0 0 256 256" fill="none" xmlns="http://www.w3.org/2000/svg">
<path d="M0 0H128C131.714 0 133.571 0 135.141 0.0397946C201.162 1.71282 254.287 54.8377 255.96 120.859C256 122.429 256 124.286 256 128V128C256 131.714 256 133.571 255.96 135.141C254.287 201.162 201.162 254.287 135.141 255.96C133.571 256 131.714 256 128 256H0V0Z" fill="#4D4DFF"/>
<path d="M130.667 208H125.333C125.333 165.28 90.72 130.667 48 130.667V125.333C90.72 125.333 125.333 90.72 125.333 48H130.667C130.667 90.72 165.28 125.333 208 125.333V130.667C165.28 130.667 130.667 165.28 130.667 208Z" fill="white"/>
</svg>
